<svg width="48" height="48" viewBox="0 0 48 48" fill="none" xmlns="http://www.w3.org/2000/svg">
<path d="M37.5825 22.01H15.2425L25.0025 12.25C25.7825 11.47 25.7825 10.19 25.0025 9.40998C24.6288 9.03548 24.1215 8.82501 23.5925 8.82501C23.0634 8.82501 22.5561 9.03548 22.1825 9.40998L9.00248 22.59C8.22248 23.37 8.22248 24.63 9.00248 25.41L22.1825 38.59C22.9625 39.37 24.2225 39.37 25.0025 38.59C25.7825 37.81 25.7825 36.55 25.0025 35.77L15.2425 26.01H37.5825C38.6825 26.01 39.5825 25.11 39.5825 24.01C39.5825 22.91 38.6825 22.01 37.5825 22.01Z" fill="white"/>
</svg>
