<svg width="48" height="48" viewBox="0 0 48 48" fill="none" xmlns="http://www.w3.org/2000/svg">
<path d="M10.4175 22.01H32.7575L22.9975 12.25C22.2175 11.47 22.2175 10.19 22.9975 9.40998C23.3712 9.03548 23.8785 8.82501 24.4075 8.82501C24.9366 8.82501 25.4439 9.03548 25.8175 9.40998L38.9975 22.59C39.7775 23.37 39.7775 24.63 38.9975 25.41L25.8175 38.59C25.0375 39.37 23.7775 39.37 22.9975 38.59C22.2175 37.81 22.2175 36.55 22.9975 35.77L32.7575 26.01H10.4175C9.31752 26.01 8.41752 25.11 8.41752 24.01C8.41752 22.91 9.31752 22.01 10.4175 22.01Z" fill="white"/>
</svg>
