<svg width="48" height="49" viewBox="0 0 48 49" fill="none" xmlns="http://www.w3.org/2000/svg">
<g clip-path="url(#clip0)">
<path fill-rule="evenodd" clip-rule="evenodd" d="M23.8469 0C37.013 0 47.6898 10.6768 47.6898 23.8469C47.6898 30.2252 45.1847 36.0229 41.1008 40.3016C42.429 44.2741 42.8664 43.0732 48.004 43.8327V48.8033C40.3373 49.1134 41.8643 48.3499 37.0488 43.7014C33.2672 46.2225 28.73 47.6899 23.8469 47.6899C10.6768 47.6899 0 37.013 0 23.8469C0 10.6768 10.6808 0 23.8469 0ZM10.987 17.5959C14.53 17.5959 17.405 20.4669 17.405 24.0139C17.405 27.557 14.534 30.428 10.987 30.428C7.44396 30.428 4.57294 27.557 4.57294 24.0139C4.57294 20.4669 7.44396 17.5959 10.987 17.5959ZM37.013 17.5959C40.556 17.5959 43.431 20.4669 43.431 24.0139C43.431 27.557 40.56 30.428 37.013 30.428C33.47 30.428 30.599 27.557 30.599 24.0139C30.599 20.4669 33.47 17.5959 37.013 17.5959ZM24.1889 4.31845C27.7319 4.31845 30.6029 7.18946 30.6029 10.7365C30.6029 14.2795 27.7319 17.1505 24.1889 17.1505C20.6458 17.1505 17.7709 14.2795 17.7709 10.7365C17.7709 7.19344 20.6458 4.31845 24.1889 4.31845ZM23.9622 20.5623C25.7834 20.5623 27.2627 22.0416 27.2627 23.8628C27.2627 25.684 25.7834 27.1633 23.9622 27.1633C22.141 27.1633 20.6617 25.684 20.6617 23.8628C20.6617 22.0376 22.141 20.5623 23.9622 20.5623ZM24.1889 31.1676C27.7319 31.1676 30.6029 34.0386 30.6029 37.5856C30.6029 41.1287 27.7319 43.9997 24.1889 43.9997C20.6458 43.9997 17.7709 41.1287 17.7709 37.5856C17.7709 34.0426 20.6458 31.1676 24.1889 31.1676Z" fill="url(#paint0_linear)"/>
</g>
<defs>
<linearGradient id="paint0_linear" x1="48.1153" y1="48.9106" x2="-1.71973e-05" y2="1.69177e-05" gradientUnits="userSpaceOnUse">
<stop stop-color="#EE5555"/>
<stop offset="1" stop-color="#FDC769"/>
</linearGradient>
<clipPath id="clip0">
<rect width="48" height="48.8629" fill="white"/>
</clipPath>
</defs>
</svg>
